<svg version="1.1" xmlns="http://www.w3.org/2000/svg" width="512" height="512" viewBox="0 0 512 512">
<path fill="#fff" d="M256 151.548c-16.482 0-29.843-13.362-29.843-29.843v-89.53c0-16.482 13.361-29.843 29.843-29.843s29.844 13.361 29.844 29.843v89.53c0 16.482-13.363 29.843-29.844 29.843z"></path>
<path fill="#fff" d="M256 498.478c-10.301 0-18.652-8.351-18.652-18.652v-89.53c0-10.301 8.351-18.652 18.652-18.652 10.302 0 18.652 8.352 18.652 18.652v89.53c0 10.301-8.35 18.652-18.652 18.652z"></path>
<path fill="#fff" d="M188.878 167.68c-9.67 0-19.073-5.017-24.256-13.994l-44.765-77.535c-7.726-13.382-3.141-30.493 10.241-38.219 13.381-7.725 30.493-3.142 38.219 10.241l44.765 77.536c7.726 13.382 3.141 30.493-10.241 38.219-4.405 2.542-9.216 3.752-13.963 3.752z"></path>
<path fill="#fff" d="M367.928 466.628c-5.801 0-11.443-3.011-14.554-8.396l-44.765-77.535c-4.635-8.028-1.885-18.296 6.145-22.932 8.028-4.632 18.295-1.885 22.932 6.146l44.766 77.534c4.635 8.029 1.884 18.296-6.146 22.932-2.643 1.524-5.53 2.251-8.378 2.251z"></path>
<path fill="#fff" d="M139.672 214.97c-4.43 0-8.919-1.128-13.032-3.503l-77.536-44.765c-12.489-7.211-16.769-23.181-9.558-35.671s23.182-16.769 35.671-9.558l77.535 44.765c12.49 7.211 16.769 23.181 9.558 35.67-4.834 8.378-13.613 13.062-22.638 13.062z"></path>
<path fill="#fff" d="M449.824 382.837c-2.532 0-5.098-0.645-7.447-2.002l-77.534-44.765c-7.137-4.12-9.582-13.247-5.462-20.384s13.248-9.583 20.383-5.462l77.535 44.766c7.137 4.12 9.582 13.246 5.462 20.383-2.765 4.787-7.781 7.464-12.937 7.464z"></path>
<path fill="#fff" d="M121.705 280.248h-89.53c-13.392 0-24.248-10.856-24.248-24.248s10.856-24.248 24.248-24.248h89.53c13.392 0 24.248 10.856 24.248 24.248s-10.856 24.248-24.248 24.248z"></path>
<path fill="#fff" d="M479.825 270.922c-0.001 0 0 0 0 0h-89.53c-8.241-0.001-14.922-6.682-14.922-14.922s6.682-14.922 14.922-14.922c0.001 0 0 0 0 0h89.53c8.241 0 14.922 6.681 14.922 14.922s-6.682 14.922-14.922 14.922z"></path>
<path fill="#fff" d="M62.183 390.299c-7.736 0-15.259-4.014-19.405-11.195-6.181-10.705-2.513-24.395 8.192-30.574l77.536-44.766c10.705-6.184 24.395-2.514 30.575 8.192 6.181 10.706 2.513 24.395-8.192 30.575l-77.536 44.765c-3.525 2.035-7.374 3.003-11.17 3.003z"></path>
<path fill="#fff" d="M372.316 203.776c-5.157 0-10.173-2.676-12.937-7.463-4.12-7.137-1.675-16.263 5.462-20.384l77.535-44.764c7.136-4.118 16.263-1.676 20.384 5.461 4.12 7.137 1.675 16.263-5.462 20.384l-77.535 44.764c-2.35 1.357-4.915 2.002-7.447 2.002z"></path>
<path fill="#fff" d="M144.068 470.358c-3.481 0-7.008-0.887-10.24-2.752-9.813-5.666-13.175-18.214-7.51-28.027l44.765-77.535c5.665-9.814 18.213-13.176 28.027-7.511 9.813 5.666 13.175 18.215 7.51 28.027l-44.765 77.536c-3.799 6.583-10.696 10.262-17.787 10.262z"></path>
<path fill="#fff" d="M323.133 154.621c-2.531 0-5.098-0.645-7.447-2.001-7.137-4.121-9.582-13.247-5.462-20.383l44.767-77.535c4.12-7.137 13.246-9.583 20.383-5.461s9.582 13.247 5.462 20.383l-44.766 77.535c-2.765 4.785-7.78 7.462-12.937 7.462z"></path>
</svg>
